<mxfile host="app.diagrams.net" modified="2023-09-26T01:49:22.153Z" agent="Mozilla/5.0 (Macintosh; Intel Mac OS X 10_15_7) AppleWebKit/537.36 (KHTML, like Gecko) Chrome/115.0.0.0 Safari/537.36" etag="JD95mb4ECAictoMQAyVz" version="21.8.2" type="device">
  <diagram name="Page-1" id="AfPLBk-zhEu12GFicvC6">
    <mxGraphModel dx="1194" dy="610" grid="1" gridSize="10" guides="1" tooltips="1" connect="1" arrows="1" fold="1" page="1" pageScale="1" pageWidth="827" pageHeight="1169" math="0" shadow="0">
      <root>
        <mxCell id="0" />
        <mxCell id="1" parent="0" />
        <mxCell id="Z2VHp3H7mXWQN1uHqM-B-1" value="" style="rounded=0;whiteSpace=wrap;html=1;" vertex="1" parent="1">
          <mxGeometry x="180" y="230" width="510" height="120" as="geometry" />
        </mxCell>
        <mxCell id="Z2VHp3H7mXWQN1uHqM-B-2" value="" style="rounded=0;whiteSpace=wrap;html=1;" vertex="1" parent="1">
          <mxGeometry x="180" y="230" width="170" height="120" as="geometry" />
        </mxCell>
        <mxCell id="Z2VHp3H7mXWQN1uHqM-B-3" value="" style="rounded=0;whiteSpace=wrap;html=1;" vertex="1" parent="1">
          <mxGeometry x="350" y="230" width="170" height="120" as="geometry" />
        </mxCell>
        <mxCell id="Z2VHp3H7mXWQN1uHqM-B-4" value="" style="rounded=0;whiteSpace=wrap;html=1;" vertex="1" parent="1">
          <mxGeometry x="520" y="230" width="170" height="120" as="geometry" />
        </mxCell>
        <mxCell id="Z2VHp3H7mXWQN1uHqM-B-5" value="IP" style="text;html=1;strokeColor=none;fillColor=none;align=center;verticalAlign=middle;whiteSpace=wrap;rounded=0;" vertex="1" parent="1">
          <mxGeometry x="400" y="275" width="60" height="30" as="geometry" />
        </mxCell>
        <mxCell id="Z2VHp3H7mXWQN1uHqM-B-6" value="Ethernet" style="text;html=1;strokeColor=none;fillColor=none;align=center;verticalAlign=middle;whiteSpace=wrap;rounded=0;" vertex="1" parent="1">
          <mxGeometry x="235" y="275" width="60" height="30" as="geometry" />
        </mxCell>
        <mxCell id="Z2VHp3H7mXWQN1uHqM-B-7" value="TCP" style="text;html=1;strokeColor=none;fillColor=none;align=center;verticalAlign=middle;whiteSpace=wrap;rounded=0;" vertex="1" parent="1">
          <mxGeometry x="580" y="275" width="60" height="30" as="geometry" />
        </mxCell>
        <mxCell id="Z2VHp3H7mXWQN1uHqM-B-8" value="" style="endArrow=classic;startArrow=classic;html=1;rounded=0;" edge="1" parent="1">
          <mxGeometry width="50" height="50" relative="1" as="geometry">
            <mxPoint x="180" y="190" as="sourcePoint" />
            <mxPoint x="860" y="190" as="targetPoint" />
          </mxGeometry>
        </mxCell>
        <mxCell id="Z2VHp3H7mXWQN1uHqM-B-9" value="525 Bytes" style="text;html=1;strokeColor=none;fillColor=none;align=center;verticalAlign=middle;whiteSpace=wrap;rounded=0;" vertex="1" parent="1">
          <mxGeometry x="381" y="150" width="66" height="30" as="geometry" />
        </mxCell>
        <mxCell id="Z2VHp3H7mXWQN1uHqM-B-10" value="14 Bytes" style="text;html=1;strokeColor=none;fillColor=none;align=center;verticalAlign=middle;whiteSpace=wrap;rounded=0;" vertex="1" parent="1">
          <mxGeometry x="230" y="200" width="60" height="30" as="geometry" />
        </mxCell>
        <mxCell id="Z2VHp3H7mXWQN1uHqM-B-11" value="20 Bytes" style="text;html=1;strokeColor=none;fillColor=none;align=center;verticalAlign=middle;whiteSpace=wrap;rounded=0;" vertex="1" parent="1">
          <mxGeometry x="405" y="200" width="60" height="30" as="geometry" />
        </mxCell>
        <mxCell id="Z2VHp3H7mXWQN1uHqM-B-12" value="20 Bytes" style="text;html=1;strokeColor=none;fillColor=none;align=center;verticalAlign=middle;whiteSpace=wrap;rounded=0;" vertex="1" parent="1">
          <mxGeometry x="560" y="200" width="60" height="30" as="geometry" />
        </mxCell>
        <mxCell id="Z2VHp3H7mXWQN1uHqM-B-17" value="" style="rounded=0;whiteSpace=wrap;html=1;" vertex="1" parent="1">
          <mxGeometry x="690" y="230" width="170" height="120" as="geometry" />
        </mxCell>
        <mxCell id="Z2VHp3H7mXWQN1uHqM-B-18" value="471 Bytes" style="text;html=1;strokeColor=none;fillColor=none;align=center;verticalAlign=middle;whiteSpace=wrap;rounded=0;" vertex="1" parent="1">
          <mxGeometry x="745" y="200" width="60" height="30" as="geometry" />
        </mxCell>
        <mxCell id="Z2VHp3H7mXWQN1uHqM-B-19" value="HTP" style="text;html=1;strokeColor=none;fillColor=none;align=center;verticalAlign=middle;whiteSpace=wrap;rounded=0;" vertex="1" parent="1">
          <mxGeometry x="745" y="270" width="60" height="30" as="geometry" />
        </mxCell>
      </root>
    </mxGraphModel>
  </diagram>
</mxfile>
